HIERARCHY
ROOT joint_Root
{
	OFFSET 0.0 0.0 0.0
	CHANNELS 6 Xposition Yposition Zposition Zrotation Xrotation Yrotation 
	JOINT Hips
	{
		OFFSET 4.5925 91.4895 -427.239
		CHANNELS 6 Xposition Yposition Zposition Zrotation Xrotation Yrotation 
		JOINT Spine
		{
			OFFSET 15.7357 0.0 0.0
			CHANNELS 6 Xposition Yposition Zposition Zrotation Xrotation Yrotation 
			JOINT Chest
			{
				OFFSET 8.98455 -0.406207 0.0
				CHANNELS 6 Xposition Yposition Zposition Zrotation Xrotation Yrotation 
				JOINT Neck
				{
					OFFSET 16.3773 0.0 0.0
					CHANNELS 6 Xposition Yposition Zposition Zrotation Xrotation Yrotation 
					JOINT Head
					{
						OFFSET 6.45672 0.0 0.0
						CHANNELS 6 Xposition Yposition Zposition Zrotation Xrotation Yrotation 
						End Site
						{
							OFFSET 0.0 0.0 0.0
						}
					}
				}
				JOINT Shoulder_L
				{
					OFFSET 12.9942 -0.242716 4.98039
					CHANNELS 6 Xposition Yposition Zposition Zrotation Xrotation Yrotation 
					JOINT UpperArm_L
					{
						OFFSET 5.34809 0.0 0.0
						CHANNELS 6 Xposition Yposition Zposition Zrotation Xrotation Yrotation 
						JOINT LowerArm_L
						{
							OFFSET 24.3286 1.87007e-05 0.0
							CHANNELS 6 Xposition Yposition Zposition Zrotation Xrotation Yrotation 
							JOINT Hand_L
							{
								OFFSET 22.2916 0.0 0.0
								CHANNELS 6 Xposition Yposition Zposition Zrotation Xrotation Yrotation 
								End Site
								{
									OFFSET 0.0 0.0 0.0
								}
							}
						}
					}
				}
				JOINT Shoulder_R
				{
					OFFSET 12.9945 -0.242716 -4.98039
					CHANNELS 6 Xposition Yposition Zposition Zrotation Xrotation Yrotation 
					JOINT UpperArm_R
					{
						OFFSET -5.34813 0.0 0.0
						CHANNELS 6 Xposition Yposition Zposition Zrotation Xrotation Yrotation 
						JOINT LowerArm_R
						{
							OFFSET -24.3289 0.000322201 0.0
							CHANNELS 6 Xposition Yposition Zposition Zrotation Xrotation Yrotation 
							JOINT Hand_R
							{
								OFFSET -22.2915 -0.000108084 0.0
								CHANNELS 6 Xposition Yposition Zposition Zrotation Xrotation Yrotation 
								End Site
								{
									OFFSET 0.0 0.0 0.0
								}
							}
						}
					}
				}
			}
		}
		JOINT UpperLeg_L
		{
			OFFSET -2.19248 -6.46944 0.0
			CHANNELS 6 Xposition Yposition Zposition Zrotation Xrotation Yrotation 
			JOINT LowerLeg_L
			{
				OFFSET 39.0811 0.0 -1.23785e-05
				CHANNELS 6 Xposition Yposition Zposition Zrotation Xrotation Yrotation 
				JOINT Foot_L
				{
					OFFSET 40.9854 0.0 -1.26872e-05
					CHANNELS 6 Xposition Yposition Zposition Zrotation Xrotation Yrotation 
					JOINT Toes_L
					{
						OFFSET 11.7543 0.0 0.0
						CHANNELS 6 Xposition Yposition Zposition Zrotation Xrotation Yrotation 
						End Site
						{
							OFFSET 0.0 0.0 0.0
						}
					}
				}
			}
		}
		JOINT UpperLeg_R
		{
			OFFSET -2.19251 6.46944 0.0
			CHANNELS 6 Xposition Yposition Zposition Zrotation Xrotation Yrotation 
			JOINT LowerLeg_R
			{
				OFFSET -39.0811 -0.00228153 -0.0401928
				CHANNELS 6 Xposition Yposition Zposition Zrotation Xrotation Yrotation 
				JOINT Foot_R
				{
					OFFSET -40.9854 0.0 0.0
					CHANNELS 6 Xposition Yposition Zposition Zrotation Xrotation Yrotation 
					JOINT Toes_R
					{
						OFFSET -11.7543 0.0 0.0
						CHANNELS 6 Xposition Yposition Zposition Zrotation Xrotation Yrotation 
						End Site
						{
							OFFSET 0.0 0.0 0.0
						}
					}
				}
			}
		}
	}
}
MOTION
Frames:	4
Frame Time:	0.0333333
0.000000 0.000000 0.000000 0.000000 0.000000 -0.000000 -0.249947 83.192100 3.381070 89.397500 -7.261000 13.536800 15.735700 0.000005 -0.000001 89.644100 79.971900 -90.189500 8.984550 -0.406207 -0.000000 12.289400 -0.144936 -1.075030 16.377300 -0.000001 -0.000001 -1.143700 -1.610280 0.387340 6.456720 -0.000001 -0.000000 -9.713550 -2.062990 0.653672 12.994200 -0.242716 4.980390 -90.541000 1.360530 -68.309800 5.348090 -0.000007 -0.000001 -77.745300 12.095500 8.499940 24.328600 0.000019 0.000005 1.461660 6.822790 -12.124100 22.291600 -0.000001 0.000005 19.133700 5.061310 5.984130 12.994500 -0.242716 -4.980390 88.247800 7.804390 -77.303700 -5.348130 -0.000001 -0.000004 -68.722900 -1.215230 -1.343000 -24.328900 0.000322 -0.000009 -1.423640 -16.699200 -4.932910 -22.291500 -0.000108 -0.000004 13.132300 5.197380 2.800420 -2.192480 -6.469440 -0.000000 -173.373000 -12.594300 -5.987870 39.081100 -0.000007 -0.000012 -0.550257 0.349858 57.552700 40.985400 -0.000006 -0.000013 -0.553178 1.801710 -87.407700 11.754300 -0.000000 0.000003 -0.000493 -0.003936 -16.721500 -2.192510 6.469440 -0.000001 175.494000 10.338700 171.583000 -39.081100 -0.002282 -0.040193 0.056259 -0.031961 58.933200 -40.985400 0.000008 0.000006 4.268840 3.516200 -85.439300 -11.754300 -0.000006 -0.000006 -0.999830 -1.227250 -17.465300
0.000000 0.000000 0.000000 0.000000 0.000000 -0.000000 -0.365281 85.629800 3.910210 89.322300 -6.007430 11.953200 15.735700 0.000005 -0.000001 90.282700 81.314700 -90.801700 8.984550 -0.406207 -0.000000 9.605020 0.076879 -1.043710 16.377300 -0.000001 -0.000001 -0.028605 -1.890990 0.315046 6.456720 -0.000001 -0.000000 -8.549690 -2.346000 0.205663 12.994200 -0.242716 4.980390 -89.884300 -0.281546 -67.678300 5.348090 -0.000007 -0.000001 -74.852200 7.038380 5.132820 24.328600 0.000019 0.000005 2.404950 9.877860 -13.751000 22.291600 -0.000001 0.000005 18.456800 5.066710 5.866610 12.994500 -0.242716 -4.980390 88.609500 5.853990 -76.611400 -5.348130 -0.000001 -0.000004 -65.590700 -7.117880 -3.386490 -24.328900 0.000322 -0.000009 -0.326666 -11.432300 -1.638180 -22.291500 -0.000108 -0.000004 9.709670 5.127230 4.492370 -2.192480 -6.469440 -0.000000 -173.757000 -11.916700 -3.738050 39.081100 -0.000007 -0.000012 -0.453977 0.383601 49.803900 40.985400 -0.000006 -0.000013 -0.536855 2.254900 -83.606000 11.754300 -0.000000 0.000003 -0.000415 -0.003412 -16.703200 -2.192510 6.469440 -0.000001 175.435000 12.019000 174.183000 -39.081100 -0.002282 -0.040193 0.043985 -0.032512 51.411000 -40.985400 0.000008 0.000006 4.222100 4.294770 -81.646700 -11.754300 -0.000006 -0.000006 -1.062030 -1.296380 -17.809800
0.000000 0.000000 0.000000 0.000000 0.000000 -0.000000 -0.439437 88.149700 4.055410 89.398600 -4.516060 8.795630 15.735700 0.000005 -0.000001 91.369700 83.538200 -91.961400 8.984550 -0.406207 -0.000000 5.155890 0.321732 -1.196590 16.377300 -0.000001 -0.000001 2.709660 -2.334130 0.394310 6.456720 -0.000001 -0.000000 -6.578720 -2.708670 -0.077783 12.994200 -0.242716 4.980390 -89.108000 -2.113250 -67.112600 5.348090 -0.000007 -0.000001 -68.789600 0.313149 -2.843630 24.328600 0.000019 0.000005 3.640090 12.963100 -15.835900 22.291600 -0.000001 0.000005 18.915400 5.041410 6.425990 12.994500 -0.242716 -4.980390 89.123500 3.458520 -75.765900 -5.348130 -0.000001 -0.000004 -60.147900 -15.552300 -8.297350 -24.328900 0.000322 -0.000009 -0.096912 -8.737370 -0.631141 -22.291500 -0.000108 -0.000004 8.426430 5.038030 6.499690 -2.192480 -6.469440 -0.000000 -174.733000 -11.127400 -2.766530 39.081100 -0.000007 -0.000012 -0.322886 0.376129 40.644900 40.985400 -0.000006 -0.000013 -0.591889 2.578070 -78.763400 11.754300 -0.000000 0.000003 -0.000254 -0.002263 -16.662300 -2.192510 6.469440 -0.000001 175.567000 14.605000 175.161000 -39.081100 -0.002282 -0.040193 0.030623 -0.029222 43.107900 -40.985400 0.000008 0.000006 4.216560 5.605080 -76.439800 -11.754300 -0.000006 -0.000006 -1.250610 -1.501210 -18.713100
0.000000 0.000000 0.000000 0.000000 0.000000 -0.000000 -0.529286 90.013100 3.930020 89.094800 -3.060050 5.914640 15.735700 0.000005 -0.000001 91.554000 85.599900 -92.041500 8.984550 -0.406207 -0.000000 1.032260 0.267188 -0.976601 16.377300 -0.000001 -0.000001 5.832410 -2.796200 0.515846 6.456720 -0.000001 -0.000000 -4.766540 -3.071930 -0.486415 12.994200 -0.242716 4.980390 -88.729000 -2.931940 -66.550700 5.348090 -0.000007 -0.000001 -61.016500 -7.037970 -14.271700 24.328600 0.000019 0.000005 4.608480 12.335500 -20.667700 22.291600 -0.000001 0.000005 18.871500 5.082660 5.506030 12.994500 -0.242716 -4.980390 89.614500 1.422760 -74.834700 -5.348130 -0.000001 -0.000004 -53.801100 -24.423400 -17.920700 -24.328900 0.000322 -0.000009 -0.258238 -10.127100 -1.456550 -22.291500 -0.000108 -0.000004 8.612920 5.038860 6.484030 -2.192480 -6.469440 -0.000000 -175.140000 -10.643000 -2.258640 39.081100 -0.000007 -0.000012 -0.165035 0.255427 32.867400 40.985400 -0.000006 -0.000013 0.195269 3.091510 -74.555700 11.754300 -0.000000 0.000003 -0.435040 -0.565673 -16.261500 -2.192510 6.469440 -0.000001 176.301000 17.036400 175.426000 -39.081100 -0.002282 -0.040193 0.023473 -0.027299 36.480100 -40.985400 0.000008 0.000006 4.145640 6.997530 -71.802800 -11.754300 -0.000006 -0.000006 -0.561484 -0.686980 -19.127900
